<?xml version="1.0" encoding="utf-8"?>
<svg viewBox="226.9192 15.082 516.7933 374.473" xmlns="http://www.w3.org/2000/svg" xmlns:xlink="http://www.w3.org/1999/xlink">
  <defs>
    <linearGradient id="e8f3bced-dea3-4e6a-a8e5-01bc48f24d29-170" x1="399.62463" y1="402.98543" x2="431.5004" y2="371.10966" gradientUnits="userSpaceOnUse" gradientTransform="matrix(0.146209, 0, 0, 0.146209, 681.076992, 36.810146)">
      <stop offset="0" stop-color="#1a237e" stop-opacity="0.4"/>
      <stop offset="1" stop-color="#1a237e" stop-opacity="0"/>
    </linearGradient>
    <filter id="filter0_d" x="-8.39411" y="15.8291" width="116.727" height="92.2456" filterUnits="userSpaceOnUse" color-interpolation-filters="sRGB">
      <feFlood flood-opacity="0" result="BackgroundImageFix"/>
      <feColorMatrix in="SourceAlpha" type="matrix" values="0 0 0 0 0 0 0 0 0 0 0 0 0 0 0 0 0 0 127 0"/>
      <feOffset/>
      <feGaussianBlur stdDeviation="4.16667"/>
      <feColorMatrix type="matrix" values="0 0 0 0 0 0 0 0 0 0 0 0 0 0 0 0 0 0 0.25 0"/>
      <feBlend mode="overlay" in2="BackgroundImageFix" result="effect1_dropShadow"/>
      <feBlend mode="normal" in="SourceGraphic" in2="effect1_dropShadow" result="shape"/>
    </filter>
    <filter id="filter1_d" x="60.4167" y="-8.07558" width="47.9167" height="116.151" filterUnits="userSpaceOnUse" color-interpolation-filters="sRGB">
      <feFlood flood-opacity="0" result="BackgroundImageFix"/>
      <feColorMatrix in="SourceAlpha" type="matrix" values="0 0 0 0 0 0 0 0 0 0 0 0 0 0 0 0 0 0 127 0"/>
      <feOffset/>
      <feGaussianBlur stdDeviation="4.16667"/>
      <feColorMatrix type="matrix" values="0 0 0 0 0 0 0 0 0 0 0 0 0 0 0 0 0 0 0.25 0"/>
      <feBlend mode="overlay" in2="BackgroundImageFix" result="effect1_dropShadow"/>
      <feBlend mode="normal" in="SourceGraphic" in2="effect1_dropShadow" result="shape"/>
    </filter>
    <linearGradient id="paint0_linear" x1="49.9392" y1="0.257812" x2="49.9392" y2="99.7423" gradientUnits="userSpaceOnUse">
      <stop stop-color="white"/>
      <stop offset="1" stop-color="white" stop-opacity="0"/>
    </linearGradient>
    <linearGradient id="a8136d5f-4c26-4562-977f-ea29024932d1-138" x1="235.31858" y1="696.90233" x2="235.31858" y2="566.04347" xlink:href="#a3c4672e-2259-4d6c-8c24-5949363a8af1-132"/>
    <linearGradient id="a3c4672e-2259-4d6c-8c24-5949363a8af1-132" x1="278.97312" y1="470.29515" x2="278.97312" y2="199.61685" gradientUnits="userSpaceOnUse">
      <stop offset="0" stop-color="gray" stop-opacity="0.25"/>
      <stop offset="0.5351" stop-color="gray" stop-opacity="0.12"/>
      <stop offset="1" stop-color="gray" stop-opacity="0.1"/>
    </linearGradient>
    <linearGradient id="eaaf4b84-3353-429f-a894-84d4b3cd89b7-139" x1="270.35167" y1="696.90233" x2="270.35167" y2="566.04347" xlink:href="#a3c4672e-2259-4d6c-8c24-5949363a8af1-132"/>
    <linearGradient id="fa1ca12c-a5d3-4b88-b665-ae3e1db189da-140" x1="319.81014" y1="696.88015" x2="319.81014" y2="561.94405" xlink:href="#a3c4672e-2259-4d6c-8c24-5949363a8af1-132"/>
    <clipPath id="a">
      <path d="M0 .113h91.887V92H0Zm0 0"/>
    </clipPath>
  </defs>
  <mask id="mask0" mask-type="alpha" maskUnits="userSpaceOnUse" x="0" y="0" width="100" height="100">
    <path fill-rule="evenodd" clip-rule="evenodd" d="M70.9119 99.3171C72.4869 99.9307 74.2828 99.8914 75.8725 99.1264L96.4608 89.2197C98.6242 88.1787 100 85.9892 100 83.5872V16.4133C100 14.0113 98.6243 11.8218 96.4609 10.7808L75.8725 0.873756C73.7862 -0.130129 71.3446 0.11576 69.5135 1.44695C69.252 1.63711 69.0028 1.84943 68.769 2.08341L29.3551 38.0415L12.1872 25.0096C10.589 23.7965 8.35363 23.8959 6.86933 25.2461L1.36303 30.2549C-0.452552 31.9064 -0.454633 34.7627 1.35853 36.417L16.2471 50.0001L1.35853 63.5832C-0.454633 65.2374 -0.452552 68.0938 1.36303 69.7453L6.86933 74.7541C8.35363 76.1043 10.589 76.2037 12.1872 74.9905L29.3551 61.9587L68.769 97.9167C69.3925 98.5406 70.1246 99.0104 70.9119 99.3171ZM75.0152 27.2989L45.1091 50.0001L75.0152 72.7012V27.2989Z" fill="white"/>
  </mask>
  <g transform="matrix(0.9999999999999999, 0, 0, 0.9999999999999999, 21.000000625848763, -7.105427357601002e-15)">
    <title>Plante</title>
    <path d="M 255.756 169.793 C 256.756 159.034 259.515 148.512 263.924 138.648 C 265.153 135.902 266.505 133.218 267.982 130.593 C 268.202 130.186 267.898 129.693 267.435 129.707 C 267.235 129.713 267.051 129.818 266.944 129.987 C 261.575 139.545 257.814 149.921 255.811 160.699 C 255.253 163.71 254.835 166.74 254.555 169.793 C 254.484 170.563 255.686 170.558 255.756 169.793 Z" fill="#3f3d56" style=""/>
    <circle cx="270.893" cy="124.909" r="7.612" style="fill: rgb(78, 180, 120);"/>
    <path d="M 256.535 169.995 C 257.184 163.015 258.973 156.19 261.834 149.789 C 262.631 148.009 263.509 146.267 264.466 144.564 C 264.609 144.3 264.412 143.98 264.112 143.989 C 263.982 143.993 263.863 144.061 263.793 144.17 C 260.311 150.372 257.87 157.103 256.571 164.095 C 256.209 166.048 255.938 168.015 255.756 169.995 C 255.71 170.495 256.489 170.491 256.535 169.995 Z" fill="#3f3d56" style=""/>
    <circle cx="266.355" cy="140.877" r="4.939" style="fill: rgb(78, 180, 120);"/>
    <path d="M 255.551 169.529 C 251.769 163.627 248.982 157.144 247.302 150.338 C 246.834 148.444 246.455 146.531 246.163 144.599 C 246.113 144.303 245.761 144.172 245.53 144.364 C 245.43 144.447 245.377 144.574 245.39 144.703 C 246.458 151.735 248.675 158.543 251.95 164.855 C 252.866 166.617 253.862 168.335 254.937 170.009 C 255.207 170.431 255.82 169.949 255.551 169.529 Z" fill="#3f3d56" style=""/>
    <circle cx="245.384" cy="140.53" r="4.939" style="fill: rgb(78, 180, 120);"/>
    <path d="M 240.39 173.898 L 240.39 164.195 C 240.392 162.186 242.02 160.558 244.028 160.556 L 266.669 160.556 C 268.678 160.558 270.307 162.186 270.308 164.195 L 270.308 173.898 C 270.307 175.907 268.678 177.535 266.669 177.537 L 244.028 177.537 C 242.02 177.535 240.392 175.907 240.39 173.898 Z" style="fill: rgb(228, 228, 228);"/>
  </g>
  <g transform="matrix(0.9999999999999999, 0, 0, 0.9999999999999999, 20.000000596046455, -7.105427357601002e-15)">
    <title>Bureau</title>
    <rect x="222.432" y="196.031" width="148.978" height="184.016" style="fill: rgb(83, 84, 97);"/>
    <path d="M 710.859 182.021 C 713.934 188.307 710.091 196.167 703.942 196.167 C 703.942 196.167 700.75 196.201 698.416 196.196 C 698.416 196.196 698.414 201.136 697.969 378.018 L 682.49 378.018 C 682.488 371.586 682.441 234.409 682.441 196.289 L 682.441 196.167 C 682.441 196.167 277.777 200.764 214.918 196.167 C 212.065 196.167 209.427 194.37 208.001 191.451 C 204.927 185.165 208.77 177.306 214.918 177.306 L 703.942 177.306 C 706.795 177.306 709.433 179.104 710.859 182.021 Z" style="opacity: 1; stroke-width: 0px; fill-rule: evenodd; paint-order: stroke; fill: rgb(83, 84, 97);"/>
  </g>
  <g transform="matrix(0.9999999999999999, 0, 0, 0.9999999999999999, 20.000000596046455, -7.105427357601002e-15)">
    <title>Tiroirs</title>
    <polygon points="308.657 205.081 307.785 208.408 286.058 208.408 284.749 205.081 229.415 205.081 229.415 239.077 364.427 239.077 364.427 205.081 308.657 205.081" style="fill: rgb(47, 46, 65);"/>
    <polygon points="308.657 247.945 307.785 251.27 286.058 251.27 284.749 247.945 229.415 247.945 229.415 281.939 364.427 281.939 364.427 247.945 308.657 247.945" style="fill: rgb(47, 46, 65);"/>
    <polygon points="308.657 290.808 307.785 294.133 286.058 294.133 284.749 290.808 229.415 290.808 229.415 324.803 364.427 324.803 364.427 290.808 308.657 290.808" style="fill: rgb(47, 46, 65);"/>
    <polygon points="308.657 333.671 307.785 336.997 286.058 336.997 284.749 333.671 229.415 333.671 229.415 367.666 364.427 367.666 364.427 333.671 308.657 333.671" style="fill: rgb(47, 46, 65);"/>
  </g>
  <g>
    <title>pc</title>
    <path d="M 494.15 111.495 L 494.15 171.968 L 536.516 171.968 L 536.516 111.495 C 536.517 110.601 535.936 109.813 535.083 109.549 C 534.888 109.484 534.683 109.452 534.475 109.454 L 496.197 109.454 C 495.068 109.452 494.151 110.366 494.15 111.495 Z M 510.684 132.273 C 510.716 128.792 514.505 126.651 517.504 128.42 C 518.871 129.225 519.714 130.688 519.729 132.273 L 519.729 139.29 C 519.712 142.772 515.931 144.928 512.925 143.172 C 511.544 142.366 510.693 140.89 510.684 139.29 L 510.684 132.273 Z" style="fill: rgb(63, 61, 86);"/>
    <path d="M 426.694 20.383 L 426.694 130.799 C 426.696 133.729 429.072 136.104 432.001 136.106 L 595.627 136.106 C 598.557 136.104 600.931 133.729 600.934 130.799 L 600.934 20.383 C 600.927 17.455 598.554 15.085 595.627 15.082 L 432.001 15.082 C 429.075 15.085 426.701 17.455 426.694 20.383 Z" style="fill: rgb(63, 61, 86);"/>
    <path d="M 474.447 177.061 C 474.779 177.477 475.282 177.717 475.816 177.715 L 571.538 177.715 C 572.654 177.714 573.489 176.685 573.259 175.592 L 571.773 168.535 C 571.648 167.949 571.235 167.468 570.677 167.255 C 570.478 167.176 570.266 167.137 570.051 167.137 L 477.294 167.137 C 477.081 167.137 476.869 167.176 476.669 167.255 C 476.111 167.468 475.698 167.949 475.573 168.535 L 474.087 175.592 C 473.98 176.111 474.112 176.651 474.447 177.061 Z" style="fill: rgb(63, 61, 86);"/>
  </g>
  <path d="M 489.978 170.034 L 489.978 175.866 C 489.979 176.494 490.487 177.005 491.116 177.01 L 531.465 177.01 C 532.095 177.006 532.603 176.495 532.603 175.866 L 532.603 170.034 L 489.978 170.034 Z" fill="#3f3d56" style="" transform="matrix(0.9999999999999999, 0, 0, 0.9999999999999999, 1.4210854715202004e-14, -7.105427357601002e-15)"/>
  <path d="M 430.533 21.756 L 430.533 129.437 C 430.536 131.002 431.804 132.271 433.369 132.273 L 594.265 132.273 C 595.83 132.271 597.098 131.002 597.102 129.437 L 597.102 21.756 C 597.102 20.19 595.832 18.918 594.265 18.914 L 433.369 18.914 C 431.802 18.918 430.533 20.19 430.533 21.756 Z" fill="#fff" style="" transform="matrix(0.9999999999999999, 0, 0, 0.9999999999999999, 1.4210854715202004e-14, -7.105427357601002e-15)"/>
  <path d="M 589.043 33.747 L 438.494 33.747 C 438.032 33.738 437.756 33.233 437.995 32.838 C 438.101 32.663 438.289 32.554 438.494 32.55 L 589.043 32.55 C 589.505 32.561 589.781 33.065 589.542 33.46 C 589.435 33.635 589.248 33.744 589.043 33.747 Z" fill="#3f3d56" style="" transform="matrix(0.9999999999999999, 0, 0, 0.9999999999999999, 1.4210854715202004e-14, -7.105427357601002e-15)"/>
  <ellipse cx="448.742" cy="25.907" rx="3.508" ry="3.586" fill="#3f3d56" style="" transform="matrix(0.9999999999999999, 0, 0, 0.9999999999999999, 1.4210854715202004e-14, -7.105427357601002e-15)"/>
  <ellipse cx="460.862" cy="25.907" rx="3.508" ry="3.586" fill="#3f3d56" style="" transform="matrix(0.9999999999999999, 0, 0, 0.9999999999999999, 1.4210854715202004e-14, -7.105427357601002e-15)"/>
  <ellipse cx="472.983" cy="25.907" rx="3.508" ry="3.586" fill="#3f3d56" style="" transform="matrix(0.9999999999999999, 0, 0, 0.9999999999999999, 1.4210854715202004e-14, -7.105427357601002e-15)"/>
  <path d="M 306.956 97.625 L 306.956 166.926 C 306.957 168.765 308.448 170.255 310.286 170.257 L 412.984 170.257 C 414.822 170.255 416.313 168.765 416.314 166.926 L 416.314 97.625 C 416.309 95.788 414.821 94.3 412.984 94.298 L 310.286 94.298 C 308.449 94.3 306.961 95.788 306.956 97.625 Z" fill="#3f3d56" style="" transform="matrix(0.9999999999999999, 0, 0, 0.9999999999999999, 1.4210854715202004e-14, -7.105427357601002e-15)"/>
  <path d="M 309.365 98.487 L 309.365 166.071 C 309.367 167.053 310.163 167.85 311.145 167.851 L 412.128 167.851 C 413.111 167.85 413.907 167.053 413.909 166.071 L 413.909 98.487 C 413.909 97.503 413.112 96.706 412.128 96.704 L 311.145 96.704 C 310.162 96.706 309.365 97.503 309.365 98.487 Z" style="fill: rgb(255, 255, 255);" transform="matrix(0.9999999999999999, 0, 0, 0.9999999999999999, 1.4210854715202004e-14, -7.105427357601002e-15)"/>
  <path d="M 304.808 180.441 C 305.189 180.919 305.768 181.197 306.379 181.193 L 416.343 181.193 C 417.627 181.192 418.585 180.011 418.321 178.755 L 416.614 170.647 C 416.471 169.975 415.997 169.422 415.354 169.177 C 415.126 169.087 414.882 169.041 414.636 169.042 L 308.08 169.042 C 307.834 169.041 307.591 169.087 307.362 169.177 C 306.72 169.422 306.246 169.975 306.102 170.647 L 304.395 178.755 C 304.272 179.35 304.424 179.97 304.808 180.441 Z" style="fill: rgb(63, 61, 86);" transform="matrix(0.9999999999999999, 0, 0, 0.9999999999999999, 1.4210854715202004e-14, -7.105427357601002e-15)"/>
  <g>
    <title>CLAVIER</title>
    <rect x="664.398" y="481.597" width="3.386" height="2.032" rx="0.488" transform="matrix(-1, 0, 0, -1, 1071.480012, 654.131123)" style="fill: rgb(47, 46, 65);"/>
    <rect x="657.624" y="481.597" width="3.386" height="2.032" rx="0.488" transform="matrix(-1, 0, 0, -1, 1057.932527, 654.131123)" style="fill: rgb(47, 46, 65);"/>
    <rect x="650.85" y="481.597" width="3.386" height="2.032" rx="0.488" transform="matrix(-1, 0, 0, -1, 1044.385163, 654.131123)" style="fill: rgb(47, 46, 65);"/>
    <rect x="644.077" y="481.597" width="3.386" height="2.032" rx="0.488" transform="matrix(-1, 0, 0, -1, 1030.837799, 654.131123)" style="fill: rgb(47, 46, 65);"/>
    <rect x="637.303" y="481.597" width="3.386" height="2.032" rx="0.488" transform="matrix(-1, 0, 0, -1, 1017.290436, 654.131123)" style="fill: rgb(47, 46, 65);"/>
    <rect x="630.529" y="481.597" width="3.386" height="2.032" rx="0.488" transform="matrix(-1, 0, 0, -1, 1003.742889, 654.131123)" style="fill: rgb(47, 46, 65);"/>
    <rect x="623.756" y="481.597" width="3.386" height="2.032" rx="0.488" transform="matrix(-1, 0, 0, -1, 990.195586, 654.131123)" style="fill: rgb(47, 46, 65);"/>
    <rect x="616.982" y="481.597" width="3.386" height="2.032" rx="0.488" transform="matrix(-1, 0, 0, -1, 976.648161, 654.131123)" style="fill: rgb(47, 46, 65);"/>
    <rect x="610.208" y="481.597" width="3.386" height="2.032" rx="0.488" transform="matrix(-1, 0, 0, -1, 963.100798, 654.131123)" style="fill: rgb(47, 46, 65);"/>
    <rect x="603.434" y="481.597" width="3.386" height="2.032" rx="0.488" transform="matrix(-1, 0, 0, -1, 949.553373, 654.131123)" style="fill: rgb(47, 46, 65);"/>
    <rect x="596.661" y="481.597" width="3.386" height="2.032" rx="0.488" transform="matrix(-1, 0, 0, -1, 936.00607, 654.131123)" style="fill: rgb(47, 46, 65);"/>
    <rect x="589.887" y="481.597" width="3.386" height="2.032" rx="0.488" transform="matrix(-1, 0, 0, -1, 922.458707, 654.131123)" style="fill: rgb(47, 46, 65);"/>
    <rect x="583.113" y="481.597" width="3.386" height="2.032" rx="0.488" transform="matrix(-1, 0, 0, -1, 908.911282, 654.131123)" style="fill: rgb(47, 46, 65);"/>
    <rect x="576.34" y="481.597" width="3.386" height="2.032" rx="0.488" transform="matrix(-1, 0, 0, -1, 895.363979, 654.131123)" style="fill: rgb(47, 46, 65);"/>
    <rect x="569.566" y="481.597" width="3.386" height="2.032" rx="0.488" transform="matrix(-1, 0, 0, -1, 881.816555, 654.131123)" style="fill: rgb(47, 46, 65);"/>
    <rect x="664.478" y="484.984" width="3.386" height="2.032" rx="0.488" transform="matrix(-1, 0, 0, -1, 1071.640169, 660.904805)" style="fill: rgb(47, 46, 65);"/>
    <rect x="657.704" y="484.984" width="3.386" height="2.032" rx="0.488" transform="matrix(-1, 0, 0, -1, 1058.092561, 660.904805)" style="fill: rgb(47, 46, 65);"/>
    <rect x="650.93" y="484.984" width="3.386" height="2.032" rx="0.488" transform="matrix(-1, 0, 0, -1, 1044.545319, 660.904805)" style="fill: rgb(47, 46, 65);"/>
    <rect x="644.157" y="484.984" width="3.386" height="2.032" rx="0.488" transform="matrix(-1, 0, 0, -1, 1030.997833, 660.904805)" style="fill: rgb(47, 46, 65);"/>
    <rect x="-380.067" y="-175.921" width="3.386" height="2.032" rx="0.488" transform="matrix(-1, 0, 0, -1, 0, 0)" style="fill: rgb(47, 46, 65);"/>
    <rect x="630.609" y="484.984" width="3.386" height="2.032" rx="0.488" transform="matrix(-1, 0, 0, -1, 1003.902984, 660.904805)" style="fill: rgb(47, 46, 65);"/>
    <rect x="623.836" y="484.984" width="3.386" height="2.032" rx="0.488" transform="matrix(-1, 0, 0, -1, 990.355681, 660.904805)" style="fill: rgb(47, 46, 65);"/>
    <rect x="617.062" y="484.984" width="3.386" height="2.032" rx="0.488" transform="matrix(-1, 0, 0, -1, 976.808257, 660.904805)" style="fill: rgb(47, 46, 65);"/>
    <rect x="610.288" y="484.984" width="3.386" height="2.032" rx="0.488" transform="matrix(-1, 0, 0, -1, 963.260893, 660.904805)" style="fill: rgb(47, 46, 65);"/>
    <rect x="603.514" y="484.984" width="3.386" height="2.032" rx="0.488" transform="matrix(-1, 0, 0, -1, 949.713468, 660.904805)" style="fill: rgb(47, 46, 65);"/>
    <rect x="596.741" y="484.984" width="3.386" height="2.032" rx="0.488" transform="matrix(-1, 0, 0, -1, 936.166166, 660.904805)" style="fill: rgb(47, 46, 65);"/>
    <rect x="589.967" y="484.984" width="3.386" height="2.032" rx="0.488" transform="matrix(-1, 0, 0, -1, 922.618741, 660.904805)" style="fill: rgb(47, 46, 65);"/>
    <rect x="583.193" y="484.984" width="3.386" height="2.032" rx="0.488" transform="matrix(-1, 0, 0, -1, 909.071377, 660.904805)" style="fill: rgb(47, 46, 65);"/>
    <rect x="-319.104" y="-175.921" width="3.386" height="2.032" rx="0.488" transform="matrix(-1, 0, 0, -1, 0, 0)" style="fill: rgb(47, 46, 65);"/>
    <rect x="569.646" y="484.984" width="3.386" height="2.032" rx="0.488" transform="matrix(-1, 0, 0, -1, 881.97665, 660.904805)" style="fill: rgb(47, 46, 65);"/>
    <rect x="-381.422" y="-179.984" width="27.095" height="2.032" rx="0.488" transform="matrix(-1, 0, 0, -1, 0, 0)" style="fill: rgb(47, 46, 65);"/>
  </g>
  <g transform="matrix(0.9999999999999999, 0, 0, 0.9999999999999999, -7.000000208616257, -7.105427357601002e-15)">
    <title>personne</title>
    <polygon points="545.018 365.604 532.664 365.603 526.787 317.953 545.019 317.954 545.018 365.604" fill="#ffb6b6" style=""/>
    <path d="M 551.168 377.579 L 511.335 377.577 L 511.335 377.074 C 511.335 368.511 518.276 361.57 526.839 361.569 L 526.84 361.569 L 551.169 361.571 L 551.168 377.579 Z" style="fill: rgb(230, 230, 230);"/>
    <polygon points="508.505 365.604 496.151 365.603 490.274 317.953 508.507 317.954 508.505 365.604" fill="#ffb6b6" style=""/>
    <path d="M 509.656 377.579 L 469.821 377.577 L 469.821 377.074 C 469.822 368.511 476.763 361.57 485.326 361.569 L 485.327 361.569 L 509.656 361.571 L 509.656 377.579 Z" style="fill: rgb(230, 230, 230);"/>
    <path d="M 653.932 216.967 C 653.932 216.967 661.14 255.077 633.717 259.931 C 606.296 264.784 566.711 268.195 566.711 268.195 L 548.935 351.131 L 525.053 348.999 C 525.053 348.999 528.23 249.162 536.04 241.351 C 543.851 233.54 593.219 210.153 593.219 210.153 L 653.932 216.967 Z" style="fill: rgb(83, 84, 97);"/>
    <path d="M 600.375 200.995 L 588.382 213.027 C 588.382 213.027 501.785 226.975 498.445 246.976 C 493.4 277.173 487.443 342.838 487.443 342.838 L 513.48 340.885 L 523.689 266.242 L 565.347 256.766 L 612.742 230.936 L 600.375 200.995 Z" style="fill: rgb(83, 84, 97);"/>
    <path d="M 714.964 79.229 C 709.129 79.613 705.06 85.178 706.463 90.855 L 689.19 103.596 L 694.372 115.982 L 718.513 97.646 C 725.439 95.438 727.379 86.56 722.004 81.666 C 720.09 79.923 717.546 79.042 714.964 79.229 Z" fill="#ffb6b6" style=""/>
    <path d="M 517.571 165.752 C 521.867 161.784 528.705 162.664 531.856 167.589 L 552.988 163.833 L 558.404 176.118 L 528.487 181.004 C 522.117 184.509 514.343 179.804 514.492 172.536 C 514.546 169.948 515.659 167.496 517.571 165.752 Z" fill="#ffb6b6" style=""/>
    <g>
      <title>Pull</title>
      <path d="M 712.184 105.24 L 668.882 153.332 C 668.882 153.332 648.174 146.703 632.16 139.515 L 624.965 117.418 C 623.294 112.292 622.581 106.902 622.862 101.517 C 645.063 95.61 670.886 117.591 670.886 117.591 L 703.299 92.202 L 712.184 105.24 Z" style="fill: rgb(230, 230, 230);"/>
      <path d="M 537.136 181.438 L 559.168 181.164 L 561.957 181.126 L 606.78 180.562 C 606.78 180.562 618.952 168.949 629.55 156.993 L 628.065 146.249 C 626.616 135.703 621.385 126.044 613.345 119.067 C 598.165 129.21 589.362 149.288 589.362 149.288 L 561.57 155.936 L 558.79 156.6 L 541.521 160.727 L 537.136 181.438 Z" style="fill: rgb(230, 230, 230);"/>
      <path d="M 611.144 220.519 C 603.419 217.851 595.431 215.091 586.814 214.055 L 586.444 214.011 L 586.546 213.652 C 595.466 182.334 593.239 162.3 588.869 132.207 C 586.96 118.876 594.05 105.877 606.293 100.266 L 606.346 100.242 L 630.955 98.678 L 631.011 98.675 L 648.909 103.939 C 654.201 105.507 657.796 110.413 657.696 115.931 C 657.502 125.828 657.914 136.878 658.349 148.576 C 659.326 174.82 660.336 201.958 654.605 219.565 L 654.574 219.657 L 654.498 219.717 C 649.23 224.008 642.63 226.327 635.835 226.273 C 627.801 226.273 619.603 223.441 611.144 220.519 Z" style="fill: rgb(230, 230, 230);"/>
    </g>
    <circle cx="619.168" cy="73.258" r="21.48" fill="#ffb6b6" style=""/>
    <path d="M 639.838 60.435 C 637.717 56.435 635.023 48.462 630.743 46.983 C 628.367 46.195 625.91 45.672 623.418 45.423 L 616.144 48.221 L 620.103 45.141 C 619.332 45.095 618.562 45.058 617.792 45.029 L 612.883 46.917 L 615.395 44.964 C 610.819 44.917 606.096 45.392 602.55 48.178 C 599.528 50.553 596.533 59.548 596.049 63.362 C 595.531 67.009 595.712 70.723 596.583 74.302 L 597.826 75.484 C 598.261 74.487 598.587 73.447 598.801 72.38 C 599.702 68.351 602.256 64.887 605.838 62.834 L 605.905 62.796 C 607.99 61.622 610.52 61.677 612.91 61.762 L 624.265 62.171 C 626.996 62.269 629.938 62.442 632.068 64.156 C 633.421 65.42 634.485 66.962 635.187 68.675 C 636.246 70.811 638.313 78.867 638.313 78.867 C 638.313 78.867 639.483 77.347 640.044 78.478 C 640.944 75.525 641.49 72.476 641.673 69.395 C 641.852 66.299 641.22 63.211 639.838 60.435 Z" fill="#2f2e41" style=""/>
  </g>
  <g transform="matrix(0.7118899822235106, 0, 0, 0.7118899822235106, 199.800131076578, 22.9879405196887)" style="">
    <title>telephone</title>
    <path id="fe7ea4cb-bc3a-4b8d-a4ea-d66dad23bcdf-171" data-name="Path 22" d="M 764.04 60.975 L 763.482 60.975 L 763.482 45.668 C 763.482 40.775 759.516 36.809 754.623 36.809 L 722.193 36.809 C 717.3 36.809 713.333 40.775 713.333 45.668 L 713.333 129.643 C 713.333 134.536 717.3 138.502 722.193 138.502 L 754.623 138.502 C 759.516 138.502 763.482 134.536 763.482 129.643 L 763.482 71.87 L 764.04 71.87 L 764.04 60.975 Z" fill="#3f3d56" style=""/>
    <path id="eacd08e9-88f4-437e-9f6d-ef6f76b30d28-172" data-name="Path 23" d="M 754.98 39.113 L 750.747 39.113 C 751.59 41.181 750.069 43.444 747.836 43.444 L 729.257 43.444 C 727.025 43.444 725.504 41.181 726.347 39.113 L 722.393 39.113 C 718.74 39.113 715.778 42.076 715.778 45.73 L 715.778 129.582 C 715.778 133.236 718.74 136.198 722.393 136.198 L 754.98 136.198 C 758.633 136.198 761.596 133.236 761.596 129.582 L 761.596 45.729 C 761.596 42.076 758.633 39.113 754.98 39.113 Z" fill="#fff" style=""/>
  </g>
  <g transform="matrix(0.7118899822235106, 0, 0, 0.7118899822235106, 199.800131076578, 22.9879405196887)" style="">
    <title>Flutter</title>
    <g style="isolation: isolate;" transform="matrix(0.146209, 0, 0, 0.146209, 681.077026, 36.810139)">
      <path d="M467.81413,574.842h33.883v6.631H474.69v20.054h24.39086v6.54719H474.69V633.4445h-6.87584Z" transform="translate(-190.5 -102.15952)" fill="#3f3d56"/>
      <path d="M509.88112,574.842h6.95317v58.596h-6.95317Z" transform="translate(-190.5 -102.15952)" fill="#3f3d56"/>
      <path d="M530.79216,630.32557q-3.97276-4.41742-3.96956-12.35976V591.69973h6.95317V616.909q0,5.97366,2.70007,8.75751a9.67181,9.67181,0,0,0,7.28181,2.78384,10.76421,10.76421,0,0,0,6.2572-1.88167,12.755,12.755,0,0,0,4.2531-4.91039,14.04768,14.04768,0,0,0,1.51436-6.38609V591.69973h6.9596v41.73832h-6.631v-6.05743h-.32865a13.7843,13.7843,0,0,1-5.48392,5.239,16.05914,16.05914,0,0,1-8.02289,2.12655Q534.765,634.74622,530.79216,630.32557Z" transform="translate(-190.5 -102.15952)" fill="#3f3d56"/>
      <path d="M584.80647,633.91492a10.69113,10.69113,0,0,1-3.64091-2.249,10.237,10.237,0,0,1-2.45519-3.66669,13.89684,13.89684,0,0,1-.81839-5.08438V598.002h-7.28181v-6.30231H577.892V579.9135h6.95317v11.78623h10.14943v6.30232H584.84515v23.2567a8.40091,8.40091,0,0,0,1.30815,5.18749,5.559,5.559,0,0,0,4.5044,1.843,8.46137,8.46137,0,0,0,4.58174-1.39192v6.79206a10.65965,10.65965,0,0,1-2.49386.8184,17.72361,17.72361,0,0,1-3.23492.24488A13.14878,13.14878,0,0,1,584.80647,633.91492Z" transform="translate(-190.5 -102.15952)" fill="#3f3d56"/>
      <path d="M614.34614,633.91492a10.691,10.691,0,0,1-3.6409-2.249,10.23719,10.23719,0,0,1-2.4552-3.66669,13.89684,13.89684,0,0,1-.81839-5.08438V598.002h-7.2818v-6.30231h7.2818V579.9135h6.95317v11.78623h10.14944v6.30232H614.38482v23.2567a8.401,8.401,0,0,0,1.30815,5.18749,5.559,5.559,0,0,0,4.50441,1.843,8.46134,8.46134,0,0,0,4.58173-1.39192v6.79206a10.65958,10.65958,0,0,1-2.49385.8184,17.72381,17.72381,0,0,1-3.23493.24488A13.20028,13.20028,0,0,1,614.34614,633.91492Z" transform="translate(-190.5 -102.15952)" fill="#3f3d56"/>
      <path d="M639.027,631.87859a19.871,19.871,0,0,1-7.40424-7.894,23.90183,23.90183,0,0,1-2.66141-11.33515,24.8933,24.8933,0,0,1,2.49385-11.12893,20.13467,20.13467,0,0,1,7.08205-8.10022,18.85892,18.85892,0,0,1,10.63918-3.02872,20.09451,20.09451,0,0,1,10.63919,2.73874,18.19064,18.19064,0,0,1,6.91451,7.57179,24.373,24.373,0,0,1,2.41653,11.05161,8.24631,8.24631,0,0,1-.24488,2.12655H635.92094a16.475,16.475,0,0,0,2.29409,8.02288,13.32944,13.32944,0,0,0,5.19393,4.91039,14.05838,14.05838,0,0,0,6.58585,1.6368q8.02288,0,12.35975-7.52669l5.8899,2.86762a20.98154,20.98154,0,0,1-7.32692,8.02288,22.01779,22.01779,0,0,1-21.89057.06445ZM661.7746,608.145a13.50642,13.50642,0,0,0-1.4757-5.239,11.24435,11.24435,0,0,0-4.13066-4.42064,12.93961,12.93961,0,0,0-7.082-1.7979,11.75781,11.75781,0,0,0-8.30644,3.15116,15.17671,15.17671,0,0,0-4.45931,8.30642Z" transform="translate(-190.5 -102.15952)" fill="#3f3d56"/>
      <path d="M677.24038,591.69973h6.63095V598.408H684.2a11.34909,11.34909,0,0,1,4.74929-5.72879,13.30174,13.30174,0,0,1,7.36558-2.29409,12.17048,12.17048,0,0,1,4.91039.90217v7.44936a13.03565,13.03565,0,0,0-5.8899-1.30815,9.7274,9.7274,0,0,0-5.5677,1.72057,12.44015,12.44015,0,0,0-4.05332,4.6333A13.37459,13.37459,0,0,0,684.2,610.05893v23.37913h-6.95315V591.69973Z" transform="translate(-190.5 -102.15952)" fill="#3f3d56"/>
    </g>
    <polygon points="741.858 86.207 755.171 99.583 742.597 99.437 737.918 94.758 741.858 86.207" fill="#01579b" style=""/>
    <polygon points="747.255 91.629 737.918 94.758 743.63 87.958 747.255 91.629" fill="url(#e8f3bced-dea3-4e6a-a8e5-01bc48f24d29-170)" style=""/>
    <polygon points="755.082 58.725 728.467 85.342 722.202 79.078 742.557 58.725 755.082 58.725" fill="#54c5f8" style=""/>
    <polygon points="731.559 88.544 742.524 77.578 755.098 77.578 737.846 94.684 731.559 88.544" fill="#54c5f8" style=""/>
    <polygon points="737.859 82.21 744.124 88.473 737.918 94.758 731.632 88.617 737.859 82.21" fill="#29b6f6" style=""/>
  </g>
  <g transform="matrix(0.9999999999999999, 0, 0, 0.9999999999999999, -7.000000208616257, -7.105427357601002e-15)">
    <title>Chaise</title>
    <path style="transform-box: fill-box; transform-origin: 50% 50%; fill: rgb(63, 61, 86);" d="M 638.071 261.882 L 634.18 263.223 L 671.881 375.207 L 677.331 373.329 C 677.066 372.693 638.118 261.886 638.071 261.882 Z" transform="matrix(-1, 0, 0, -1, 0.000001, 0)"/>
    <polygon points="592.31 265.214 596.202 266.555 558.499 378.539 553.051 376.661 592.31 265.214" style="transform-box: fill-box; transform-origin: 50% 50%; fill: rgb(63, 61, 86);" transform="matrix(-1, 0, 0, -1, 0.000027, 0.000007)"/>
    <polygon points="615.203 258.642 619.32 258.628 620.599 389.535 614.835 389.555 615.203 258.642" style="transform-box: fill-box; transform-origin: 50% 50%; fill: rgb(63, 61, 86);" transform="matrix(-1, 0, 0, -1, -0.00009, 0.00001)"/>
    <path d="M 531.697 277.626 L 542.99 231.984 C 546.213 218.958 556.368 208.78 569.384 205.525 C 600.879 197.652 633.852 197.864 665.242 206.143 L 682.104 210.589 C 691.9 213.173 699.267 221.587 699.964 231.695 C 700.247 235.269 699.599 238.854 698.086 242.103 C 698.02 242.243 697.954 242.382 697.888 242.52 C 693.405 251.726 684.188 257.686 673.954 257.995 L 656.093 258.571 L 591.045 287.39 C 591.045 287.39 568.673 298.753 550.281 300.025 C 538.135 300.866 528.773 289.445 531.697 277.626 Z" style="transform-box: fill-box; transform-origin: 50% 50%; fill: rgb(47, 46, 65);" transform="matrix(-1, 0, 0, -1, -0.000004, -0.000008)"/>
  </g>
  <g id="f9b32178-6d95-472d-b482-6662972666de" data-name="Group 100" transform="matrix(0.808607, 0, 0, 0.808607, 49.643243, -227.117408)" style="">
    <title>Cafe</title>
    <path id="f4b94a19-cbe0-459a-95a6-6ea3b3d72055-173" data-name="Path 1465" d="M675.14672,628.10046a11.49,11.49,0,1,0,11.49,11.49h0A11.49,11.49,0,0,0,675.14672,628.10046Zm0,18.561a7.071,7.071,0,1,1,7.071-7.071v.00006A7.071,7.071,0,0,1,675.14672,646.66143Z" transform="translate(-113.2693 -156.48744)" fill="#e4e4e4"/>
    <path id="abc0e0b3-f22e-4bee-9929-c6879640924e-174" data-name="Path 1467" d="M 516.684 462.774 L 560.877 462.774 L 560.877 506.513 C 560.877 509.692 558.3 512.27 555.12 512.27 L 522.441 512.27 C 519.262 512.27 516.684 509.692 516.684 506.513 L 516.684 462.774 L 516.684 462.774 Z" fill="#e4e4e4"/>
  </g>
  <g transform="matrix(0.9999999999999999, 0, 0, 0.9999999999999999, 196.8633939285096, 32.22465611173674)">
    <title>telephone code</title>
    <path d="M 387.865 27.748 L 387.454 27.748 L 387.454 16.5 C 387.454 12.905 384.54 9.99 380.944 9.99 L 357.114 9.99 C 353.519 9.99 350.604 12.905 350.604 16.5 L 350.604 78.207 C 350.604 81.802 353.519 84.717 357.114 84.717 L 380.944 84.717 C 384.54 84.717 387.454 81.802 387.454 78.207 L 387.454 35.754 L 387.865 35.754 L 387.865 27.748 Z" fill="#3f3d56" style=""/>
    <path d="M 381.207 11.684 L 378.097 11.684 C 378.716 13.203 377.599 14.866 375.958 14.866 L 362.306 14.866 C 360.665 14.866 359.548 13.203 360.167 11.684 L 357.262 11.684 C 354.577 11.684 352.4 13.861 352.4 16.546 L 352.4 78.162 C 352.4 80.847 354.577 83.024 357.262 83.024 L 381.207 83.024 C 383.892 83.024 386.069 80.847 386.069 78.162 L 386.069 16.546 C 386.069 13.861 383.892 11.684 381.207 11.684 Z" fill="#fff" style=""/>
    <rect x="355.27" y="23.158" width="13.924" height="23.786" fill="#e6e6e6" style=""/>
    <rect x="371.585" y="48.808" width="11.573" height="26.929" fill="#e6e6e6" style=""/>
    <rect x="371.597" y="23.158" width="11.603" height="6.547" fill="#e6e6e6" style=""/>
    <rect x="371.597" y="31.529" width="11.603" height="7.044" style="fill: rgb(78, 180, 120);"/>
    <rect x="371.597" y="40.397" width="11.603" height="6.547" fill="#e6e6e6" style=""/>
    <rect x="355.287" y="48.808" width="13.924" height="10.366" fill="#e6e6e6" style=""/>
    <rect x="355.287" y="61.183" width="13.924" height="14.576" fill="#e6e6e6" style=""/>
  </g>
  <g transform="matrix(1.248736023902893, 0, 0, 1.248736023902893, 42.32729465744774, -84.87775674097998)" style="">
    <rect x="416.943" y="290.077" width="4.824" height="2.524" rx="1.561" transform="matrix(1, 0, 0, 1, -93.65226, -178.587936)" style="fill: rgb(78, 180, 120);"/>
    <rect x="349.589" y="111.489" width="4.824" height="2.524" rx="1.561" style="fill: rgb(78, 180, 120);"/>
    <rect x="357.04" y="111.489" width="4.824" height="2.524" rx="1.561" style="fill: rgb(78, 180, 120);"/>
    <rect x="330.444" y="111.279" width="16.816" height="2.524" rx="1.561" style="fill: rgb(78, 180, 120);"/>
    <rect x="365.509" y="111.279" width="16.816" height="2.524" rx="1.561" style="fill: rgb(78, 180, 120);"/>
    <rect x="330.303" y="117.188" width="4.824" height="2.524" rx="1.561" style="fill: rgb(78, 180, 120);"/>
    <rect x="356.602" y="117.188" width="4.824" height="2.524" rx="1.561" style="fill: rgb(78, 180, 120);"/>
    <rect x="457.706" y="295.776" width="4.824" height="2.524" rx="1.561" transform="matrix(1, 0, 0, 1, -93.65226, -178.587936)" style="fill: rgb(78, 180, 120);"/>
    <rect x="337.456" y="116.977" width="16.816" height="2.524" rx="1.561" style="fill: rgb(78, 180, 120);"/>
    <rect x="372.521" y="116.977" width="16.816" height="2.524" rx="1.561" style="fill: rgb(78, 180, 120);"/>
    <rect x="337.317" y="122.885" width="4.824" height="2.524" rx="1.561" style="fill: rgb(78, 180, 120);"/>
    <rect x="457.267" y="301.473" width="4.824" height="2.524" rx="1.561" transform="matrix(1, 0, 0, 1, -93.65226, -178.587936)" style="fill: rgb(78, 180, 120);"/>
    <rect x="464.719" y="301.473" width="4.824" height="2.524" rx="1.561" transform="matrix(1, 0, 0, 1, -93.65226, -178.587936)" style="fill: rgb(78, 180, 120);"/>
    <rect x="344.47" y="122.674" width="16.816" height="2.524" rx="1.561" style="fill: rgb(78, 180, 120);"/>
    <rect x="379.534" y="122.674" width="16.816" height="2.524" rx="1.561" style="fill: rgb(78, 180, 120);"/>
    <rect x="344.33" y="128.583" width="4.824" height="2.524" rx="1.561" style="fill: rgb(78, 180, 120);"/>
    <rect x="464.28" y="307.171" width="4.824" height="2.524" rx="1.561" transform="matrix(1, 0, 0, 1, -93.65226, -178.587936)" style="fill: rgb(78, 180, 120);"/>
    <rect x="378.078" y="128.583" width="4.824" height="2.524" rx="1.561" style="fill: rgb(78, 180, 120);"/>
    <rect x="351.483" y="128.373" width="16.816" height="2.524" rx="1.561" style="fill: rgb(78, 180, 120);"/>
    <rect x="349.589" y="151.241" width="4.824" height="2.524" rx="1.561" style="fill: rgb(78, 180, 120);"/>
    <rect x="357.04" y="151.241" width="4.824" height="2.524" rx="1.561" style="fill: rgb(78, 180, 120);"/>
    <rect x="365.509" y="151.451" width="16.816" height="2.524" rx="1.561" style="fill: rgb(78, 180, 120);"/>
    <rect x="416.943" y="329.829" width="4.824" height="2.524" rx="1.561" transform="matrix(1, 0, 0, 1, -93.65226, -178.587936)" style="fill: rgb(78, 180, 120);"/>
    <rect x="330.444" y="151.451" width="16.816" height="2.524" rx="1.561" style="fill: rgb(78, 180, 120);"/>
    <rect x="330.303" y="145.543" width="4.824" height="2.524" rx="1.561" style="fill: rgb(78, 180, 120);"/>
    <rect x="450.254" y="324.131" width="4.824" height="2.524" rx="1.561" transform="matrix(1, 0, 0, 1, -93.65226, -178.587936)" style="fill: rgb(78, 180, 120);"/>
    <rect x="457.706" y="324.131" width="4.824" height="2.524" rx="1.561" transform="matrix(1, 0, 0, 1, -93.65226, -178.587936)" style="fill: rgb(78, 180, 120);"/>
    <rect x="337.456" y="145.753" width="16.816" height="2.524" rx="1.561" style="fill: rgb(78, 180, 120);"/>
    <rect x="309.91" y="195.637" width="4.824" height="2.524" rx="1.561" style="fill: rgb(78, 180, 120);" transform="matrix(1, 0, 0, 1, 27.406887, -55.792591)"/>
    <rect x="363.615" y="139.845" width="4.824" height="2.524" rx="1.561" style="fill: rgb(78, 180, 120);"/>
    <rect x="464.719" y="318.433" width="4.824" height="2.524" rx="1.561" transform="matrix(1, 0, 0, 1, -93.65226, -178.587936)" style="fill: rgb(78, 180, 120);"/>
    <rect x="344.47" y="140.055" width="16.816" height="2.524" rx="1.561" style="fill: rgb(78, 180, 120);"/>
    <rect x="316.923" y="189.94" width="4.824" height="2.524" rx="1.561" style="fill: rgb(78, 180, 120);" transform="matrix(1, 0, 0, 1, 27.406887, -55.792591)"/>
    <rect x="464.28" y="312.735" width="4.824" height="2.524" rx="1.561" transform="matrix(1, 0, 0, 1, -93.65226, -178.587936)" style="fill: rgb(78, 180, 120);"/>
    <rect x="378.078" y="134.147" width="4.824" height="2.524" rx="1.561" style="fill: rgb(78, 180, 120);"/>
    <rect x="351.483" y="134.357" width="16.816" height="2.524" rx="1.561" style="fill: rgb(78, 180, 120);"/>
  </g>
  <path d="M 411.21 111.538 L 313.06 111.538 C 312.759 111.532 312.579 111.203 312.734 110.946 C 312.804 110.831 312.926 110.76 313.06 110.758 L 411.21 110.758 C 411.511 110.765 411.691 111.094 411.536 111.351 C 411.466 111.465 411.344 111.536 411.21 111.538 Z" fill="#3f3d56" style="" transform="matrix(0.9999999999999999, 0, 0, 0.9999999999999999, 1.4210854715202004e-14, -7.105427357601002e-15)"/>
  <ellipse cx="319.511" cy="104.588" rx="2.287" ry="2.338" fill="#3f3d56" style="" transform="matrix(0.9999999999999999, 0, 0, 0.9999999999999999, 1.4210854715202004e-14, -7.105427357601002e-15)"/>
  <ellipse cx="327.413" cy="104.588" rx="2.287" ry="2.338" fill="#3f3d56" style="" transform="matrix(0.9999999999999999, 0, 0, 0.9999999999999999, 1.4210854715202004e-14, -7.105427357601002e-15)"/>
  <ellipse cx="335.315" cy="104.588" rx="2.287" ry="2.338" fill="#3f3d56" style="" transform="matrix(0.9999999999999999, 0, 0, 0.9999999999999999, 1.4210854715202004e-14, -7.105427357601002e-15)"/>
  <g transform="matrix(0.9999999999999999, 0, 0, 0.9999999999999999, -2.6187980955480867, 4.785797261768494)">
    <title>design</title>
    <path d="M 355.534 133.887 L 368.319 133.887 C 368.582 133.877 368.736 133.587 368.597 133.364 C 368.536 133.268 368.433 133.207 368.319 133.203 L 355.534 133.203 C 355.271 133.213 355.118 133.503 355.257 133.726 C 355.317 133.823 355.421 133.883 355.534 133.887 Z" style="fill: rgb(78, 180, 120);"/>
    <path d="M 367.987 130.663 L 369.984 132.487 C 370.212 132.695 370.84 133.125 370.983 133.398 C 371.277 133.962 370.96 133.833 370.458 134.028 C 369.223 134.519 368.084 135.226 367.095 136.116 C 366.765 136.408 367.249 136.889 367.578 136.6 C 368.479 135.79 369.516 135.142 370.64 134.687 C 371.042 134.528 371.807 134.435 371.998 133.955 C 372.232 133.367 371.487 132.934 371.133 132.611 L 368.469 130.181 C 368.146 129.884 367.661 130.366 367.987 130.663 Z" style="fill: rgb(78, 180, 120);"/>
    <polygon points="333.599 144.33 333.599 116.644 331.094 116.086 331.094 146.835 349.998 146.642 349.935 144.163 333.599 144.33" fill="#f2f2f2" style=""/>
    <path d="M 352.276 149.148 L 329.499 149.148 L 329.499 112.476 L 352.276 112.476 L 352.276 149.148 Z M 329.955 148.692 L 351.821 148.692 L 351.821 112.932 L 329.955 112.932 L 329.955 148.692 Z" fill="#3f3d56" style=""/>
    <rect x="268.593" y="91.354" width="3.689" height="0.456" fill="#3f3d56" style="" transform="matrix(1, 0, 0, 1, 62.955879, 23.399429)"/>
    <rect x="268.593" y="92.493" width="3.689" height="0.456" fill="#3f3d56" style="" transform="matrix(1, 0, 0, 1, 62.955879, 23.399429)"/>
    <rect x="268.593" y="93.632" width="3.689" height="0.456" fill="#3f3d56" style="" transform="matrix(1, 0, 0, 1, 62.955879, 23.399429)"/>
    <rect x="361.289" y="143.59" width="15.762" height="0.456" fill="#3f3d56" style="" transform="matrix(1, 0, 0, 1, -27.919422, -6.970322)"/>
    <rect x="361.289" y="146.095" width="15.762" height="0.456" fill="#3f3d56" style="" transform="matrix(1, 0, 0, 1, -27.919422, -6.970322)"/>
    <rect x="270.414" y="118.232" width="15.762" height="0.456" fill="#3f3d56" style="" transform="matrix(1, 0, 0, 1, 62.955879, 23.399429)"/>
    <path d="M 348.86 117.715 C 347.633 117.715 346.865 116.386 347.479 115.323 C 348.093 114.261 349.627 114.261 350.241 115.323 C 350.381 115.566 350.454 115.841 350.454 116.12 C 350.453 117 349.74 117.714 348.86 117.715 Z M 348.86 114.981 C 347.983 114.981 347.435 115.93 347.874 116.689 C 348.312 117.448 349.408 117.448 349.847 116.689 C 349.945 116.517 349.999 116.321 349.999 116.12 C 349.998 115.492 349.489 114.982 348.86 114.981 Z" fill="#3f3d56" style=""/>
    <path d="M 349.315 131.381 L 333.143 131.381 L 333.143 120.903 L 349.315 120.903 L 349.315 131.381 Z M 333.599 130.925 L 348.86 130.925 L 348.86 121.359 L 333.599 121.359 L 333.599 130.925 Z" fill="#3f3d56" style=""/>
    <rect x="94.724" y="46.197" width="0.456" height="18.641" transform="matrix(0.537668, -0.843157, 0.843157, 0.537668, 243.366562, 176.352371)" fill="#3f3d56" style=""/>
    <rect x="85.632" y="55.289" width="18.641" height="0.456" transform="matrix(0.843164, -0.537657, 0.537657, 0.843164, 231.319443, 130.384018)" fill="#3f3d56" style=""/>
    <polygon points="377.904 144.975 377.904 117.289 375.399 116.731 375.399 147.481 394.303 147.288 394.24 144.808 377.904 144.975" fill="#f2f2f2" style=""/>
    <path d="M 396.809 149.338 L 374.032 149.338 L 374.032 112.666 L 396.809 112.666 L 396.809 149.338 Z M 374.487 148.881 L 396.353 148.881 L 396.353 113.121 L 374.487 113.121 L 374.487 148.881 Z" fill="#3f3d56" style=""/>
    <rect x="313.124" y="91.544" width="3.689" height="0.456" fill="#3f3d56" style="" transform="matrix(1, 0, 0, 1, 62.955879, 23.399429)"/>
    <rect x="313.124" y="92.683" width="3.689" height="0.456" fill="#3f3d56" style="" transform="matrix(1, 0, 0, 1, 62.955879, 23.399429)"/>
    <rect x="313.124" y="93.821" width="3.689" height="0.456" fill="#3f3d56" style="" transform="matrix(1, 0, 0, 1, 62.955879, 23.399429)"/>
    <path d="M 393.392 117.905 C 392.164 117.905 391.397 116.576 392.011 115.512 C 392.626 114.45 394.159 114.45 394.774 115.512 C 394.913 115.754 394.987 116.03 394.987 116.31 C 394.986 117.19 394.273 117.904 393.392 117.905 Z M 393.392 115.171 C 392.516 115.171 391.968 116.12 392.405 116.879 C 392.844 117.638 393.94 117.638 394.379 116.879 C 394.478 116.706 394.531 116.51 394.531 116.31 C 394.53 115.681 394.021 115.172 393.392 115.171 Z" fill="#3f3d56" style=""/>
    <path d="M 393.848 131.571 L 377.676 131.571 L 377.676 121.093 L 393.848 121.093 L 393.848 131.571 Z M 378.131 131.115 L 393.392 131.115 L 393.392 121.549 L 378.131 121.549 L 378.131 131.115 Z" fill="#3f3d56" style=""/>
    <rect x="152.808" y="45.742" width="0.456" height="18.641" transform="matrix(0.537666, -0.843158, 0.843158, 0.537666, 257.053955, 225.759811)" fill="#3f3d56" style=""/>
    <rect x="143.714" y="54.834" width="18.641" height="0.456" transform="matrix(0.843219, -0.53757, 0.53757, 0.843219, 227.119858, 162.170074)" fill="#3f3d56" style=""/>
    <path d="M 393.848 145.237 L 377.676 145.237 L 377.676 134.76 L 393.848 134.76 L 393.848 145.237 Z M 378.131 144.782 L 393.392 144.782 L 393.392 135.215 L 378.131 135.215 L 378.131 144.782 Z" fill="#3f3d56" style=""/>
    <rect x="152.808" y="59.409" width="0.456" height="18.641" transform="matrix(0.537666, -0.843158, 0.843158, 0.537666, 245.530914, 232.078323)" fill="#3f3d56" style=""/>
    <rect x="143.714" y="68.5" width="18.641" height="0.456" transform="matrix(0.843219, -0.53757, 0.53757, 0.843219, 219.773132, 164.312729)" fill="#3f3d56" style=""/>
  </g>
  <path id="path0_fill" class="st0" d="M 404.696 109.364 C 405.705 109.364 406.523 108.546 406.523 107.537 L 406.523 105.71 L 404.696 105.71 C 403.687 105.71 402.87 106.528 402.87 107.537 C 402.87 108.546 403.687 109.364 404.696 109.364 Z" style="fill: rgb(10, 207, 131);" transform="matrix(0.9999999999999999, 0, 0, 0.9999999999999999, 1.4210854715202004e-14, -7.105427357601002e-15)"/>
  <path id="path1_fill" class="st1" d="M 402.87 103.884 C 402.87 102.875 403.687 102.057 404.696 102.057 L 406.523 102.057 L 406.523 105.71 L 404.696 105.71 C 403.687 105.71 402.87 104.891 402.87 103.884 Z" style="fill: rgb(162, 89, 255);" transform="matrix(0.9999999999999999, 0, 0, 0.9999999999999999, 1.4210854715202004e-14, -7.105427357601002e-15)"/>
  <path id="path1_fill_1_" class="st2" d="M 402.87 100.231 C 402.87 99.222 403.687 98.404 404.696 98.404 L 406.523 98.404 L 406.523 102.057 L 404.696 102.057 C 403.687 102.057 402.87 101.239 402.87 100.231 Z" style="fill: rgb(242, 78, 30);" transform="matrix(0.9999999999999999, 0, 0, 0.9999999999999999, 1.4210854715202004e-14, -7.105427357601002e-15)"/>
  <path id="path2_fill" class="st3" d="M 406.484 98.404 L 408.31 98.404 C 409.319 98.404 410.137 99.222 410.137 100.231 C 410.137 101.239 409.319 102.057 408.31 102.057 L 406.484 102.057 L 406.484 98.404 Z" style="fill: rgb(255, 114, 98);" transform="matrix(0.9999999999999999, 0, 0, 0.9999999999999999, 1.4210854715202004e-14, -7.105427357601002e-15)"/>
  <path id="path3_fill" class="st4" d="M 410.176 103.884 C 410.176 104.891 409.358 105.71 408.349 105.71 C 407.342 105.71 406.523 104.891 406.523 103.884 C 406.523 102.875 407.342 102.057 408.349 102.057 C 409.358 102.057 410.176 102.875 410.176 103.884 Z" style="fill: rgb(26, 188, 254);" transform="matrix(0.9999999999999999, 0, 0, 0.9999999999999999, 1.4210854715202004e-14, -7.105427357601002e-15)"/>
  <g mask="url(#mask0)" transform="matrix(0.11512900143861769, 0, 0, 0.11512900143861769, 576.754167579238, 20.117382649105245)" style="">
    <path d="M96.4614 10.7962L75.8569 0.875542C73.4719 -0.272773 70.6217 0.211611 68.75 2.08333L1.29858 63.5832C-0.515693 65.2373 -0.513607 68.0937 1.30308 69.7452L6.81272 74.754C8.29793 76.1042 10.5347 76.2036 12.1338 74.9905L93.3609 13.3699C96.086 11.3026 100 13.2462 100 16.6667V16.4275C100 14.0265 98.6246 11.8378 96.4614 10.7962Z" fill="#0065A9"/>
    <g filter="url(#filter0_d)">
      <path d="M96.4614 89.2038L75.8569 99.1245C73.4719 100.273 70.6217 99.7884 68.75 97.9167L1.29858 36.4169C-0.515693 34.7627 -0.513607 31.9063 1.30308 30.2548L6.81272 25.246C8.29793 23.8958 10.5347 23.7964 12.1338 25.0095L93.3609 86.6301C96.086 88.6974 100 86.7538 100 83.3334V83.5726C100 85.9735 98.6246 88.1622 96.4614 89.2038Z" fill="#007ACC"/>
    </g>
    <g filter="url(#filter1_d)">
      <path d="M75.8578 99.1263C73.4721 100.274 70.6219 99.7885 68.75 97.9166C71.0564 100.223 75 98.5895 75 95.3278V4.67213C75 1.41039 71.0564 -0.223106 68.75 2.08329C70.6219 0.211402 73.4721 -0.273666 75.8578 0.873633L96.4587 10.7807C98.6234 11.8217 100 14.0112 100 16.4132V83.5871C100 85.9891 98.6234 88.1786 96.4586 89.2196L75.8578 99.1263Z" fill="#1F9CF0"/>
    </g>
    <g style="mix-blend-mode:overlay" opacity="0.25">
      <path fill-rule="evenodd" clip-rule="evenodd" d="M70.8511 99.3171C72.4261 99.9306 74.2221 99.8913 75.8117 99.1264L96.4 89.2197C98.5634 88.1787 99.9392 85.9892 99.9392 83.5871V16.4133C99.9392 14.0112 98.5635 11.8217 96.4001 10.7807L75.8117 0.873695C73.7255 -0.13019 71.2838 0.115699 69.4527 1.44688C69.1912 1.63705 68.942 1.84937 68.7082 2.08335L29.2943 38.0414L12.1264 25.0096C10.5283 23.7964 8.29285 23.8959 6.80855 25.246L1.30225 30.2548C-0.513334 31.9064 -0.515415 34.7627 1.29775 36.4169L16.1863 50L1.29775 63.5832C-0.515415 65.2374 -0.513334 68.0937 1.30225 69.7452L6.80855 74.754C8.29285 76.1042 10.5283 76.2036 12.1264 74.9905L29.2943 61.9586L68.7082 97.9167C69.3317 98.5405 70.0638 99.0104 70.8511 99.3171ZM74.9544 27.2989L45.0483 50L74.9544 72.7012V27.2989Z" fill="url(#paint0_linear)"/>
    </g>
  </g>
  <g transform="matrix(0.9999999999999999, 0, 0, 0.9999999999999999, 170.1518910572495, -30.35573668348002)">
    <path d="M 228.728 75.287 C 228.728 85.364 222.737 88.883 215.348 88.883 C 215.175 88.883 215.004 88.881 214.834 88.876 C 214.492 88.869 214.153 88.854 213.818 88.83 C 207.149 88.358 201.966 84.658 201.966 75.287 C 201.966 65.589 214.357 53.351 215.292 52.443 L 215.294 52.442 C 215.329 52.407 215.348 52.388 215.348 52.388 C 215.348 52.388 228.728 65.208 228.728 75.287 Z" style="fill: rgb(78, 180, 120);"/>
    <path d="M 214.86 87.341 L 219.753 80.503 L 214.847 88.092 L 214.834 88.876 C 214.492 88.869 214.153 88.854 213.818 88.83 L 214.345 78.748 L 214.342 78.67 L 214.351 78.655 L 214.4 77.703 L 209.482 70.095 L 214.415 76.989 L 214.427 77.19 L 214.826 69.573 L 210.615 61.712 L 214.877 68.234 L 215.292 52.443 L 215.294 52.388 L 215.294 52.442 L 215.225 64.895 L 219.417 59.957 L 215.207 65.968 L 215.096 72.788 L 219.011 66.242 L 215.08 73.792 L 215.018 77.584 L 220.701 68.473 L 214.997 78.908 L 214.86 87.341 Z" fill="#f2f2f2" style=""/>
    <path d="M 89.71 86.119 C 89.71 92.159 86.121 94.267 81.693 94.267 C 81.59 94.267 81.488 94.266 81.386 94.262 C 81.181 94.258 80.977 94.25 80.777 94.234 C 76.781 93.953 73.676 91.735 73.676 86.119 C 73.676 80.309 81.1 72.977 81.66 72.432 L 81.661 72.431 C 81.682 72.41 81.693 72.399 81.693 72.399 C 81.693 72.399 89.71 80.081 89.71 86.119 Z" style="fill: rgb(78, 180, 120);"/>
    <path d="M 81.401 93.343 L 84.334 89.245 L 81.394 93.792 L 81.386 94.262 C 81.181 94.258 80.977 94.25 80.777 94.234 L 81.092 88.194 L 81.09 88.148 L 81.096 88.138 L 81.126 87.568 L 78.178 83.008 L 81.134 87.139 L 81.141 87.26 L 81.381 82.696 L 78.858 77.985 L 81.411 81.894 L 81.66 72.432 L 81.661 72.399 L 81.661 72.431 L 81.62 79.894 L 84.131 76.935 L 81.609 80.535 L 81.543 84.622 L 83.889 80.701 L 81.532 85.224 L 81.496 87.497 L 84.901 82.037 L 81.483 88.29 L 81.401 93.343 Z" style="" fill="#f2f2f2"/>
    <g opacity="0.7" transform="matrix(0.332848, 0, 0, 0.332848, 34.749474, -132.814484)" style="">
      <g opacity="0.1">
        <polygon points="218.832 566.043 218.832 584.59 218.832 590.773 218.832 673.203 218.832 679.386 218.832 696.902 243.562 696.902 251.805 696.902 251.805 679.386 251.805 673.203 251.805 590.773 251.805 584.59 251.805 566.043 243.562 566.043 218.832 566.043" fill="url(#a8136d5f-4c26-4562-977f-ea29024932d1-138)"/>
      </g>
      <g opacity="0.1">
        <polygon points="253.866 566.043 253.866 584.59 253.866 590.773 253.866 673.203 253.866 679.386 253.866 696.902 278.595 696.902 286.838 696.902 286.838 679.386 286.838 673.203 286.838 590.773 286.838 584.59 286.838 566.043 278.595 566.043 253.866 566.043" fill="url(#eaaf4b84-3353-429f-a894-84d4b3cd89b7-139)"/>
      </g>
      <g opacity="0.1">
        <polygon points="352.601 688.383 325.251 585.838 325.251 585.838 323.658 579.865 323.658 579.865 318.878 561.944 287.019 570.441 291.799 588.362 291.799 588.362 293.068 593.119 314.635 673.982 314.635 673.982 316.228 679.955 316.228 679.955 320.742 696.88 352.601 688.383" fill="url(#fa1ca12c-a5d3-4b88-b665-ae3e1db189da-140)"/>
      </g>
    </g>
    <rect x="108.709" y="56.655" width="10.42" height="41.358" fill="#535461" style=""/>
    <rect x="116.525" y="56.655" width="2.605" height="41.358" opacity="0.1" style=""/>
    <rect x="119.782" y="56.655" width="10.42" height="41.358" fill="#535461" style=""/>
    <rect x="127.597" y="56.655" width="2.605" height="41.358" opacity="0.1" style=""/>
    <rect x="169.37" y="217.111" width="10.42" height="41.358" transform="matrix(0.966223, -0.257706, 0.257706, 0.966223, -89.338478, -108.084412)" fill="#535461" style=""/>
    <rect x="177.053" y="216.104" width="2.605" height="41.358" transform="matrix(0.966223, -0.257706, 0.257706, 0.966223, -88.951401, -107.145363)" opacity="0.1" style=""/>
    <path d="M 201.903 85.172 L 227.189 85.172 C 227.189 85.172 232.178 91.536 224.436 100.997 L 204.484 100.997 C 204.484 100.997 197.259 94.46 201.903 85.172 Z" style="fill: rgb(228, 228, 228);"/>
    <g opacity="0.1" transform="matrix(0.222758, 0, 0, 0.222758, 58.84071, -56.092476)" style="">
      <path d="M962.16574,719.16264H848.65412c-.2586.51721-.50274,1.031-.74508,1.54438H958.3048s21.844,27.88077-11.11731,69.4969h2.62324C984.55919,747.73359,962.16574,719.16264,962.16574,719.16264Z" transform="translate(-206.41535 -85)"/>
    </g>
    <path d="M 73.042 92.093 L 89.169 92.093 C 89.169 92.093 92.351 96.152 87.413 102.187 L 74.687 102.187 C 74.687 102.187 70.079 98.017 73.042 92.093 Z" style="fill: rgb(228, 228, 228);"/>
    <rect y="98.144" width="175.347" height="5.944" fill="#e0e0e0" x="58.84" style=""/>
    <rect x="66.271" y="104.088" width="160.487" height="2.431" fill="#e0e0e0" style=""/>
    <rect x="66.271" y="104.088" width="160.487" height="0.81" opacity="0.1" style=""/>
    <rect x="164.752" y="56.846" width="10.42" height="41.358" fill="#535461" style=""/>
    <rect x="172.568" y="56.846" width="2.605" height="41.358" opacity="0.1" style=""/>
    <rect x="175.824" y="56.846" width="10.42" height="41.358" fill="#535461" style=""/>
    <rect x="108.709" y="62.517" width="10.42" height="1.954" style="fill: rgb(78, 180, 120);"/>
    <rect x="108.709" y="90.524" width="10.42" height="1.954" style="fill: rgb(78, 180, 120);"/>
    <rect x="119.782" y="62.517" width="10.42" height="1.954" style="fill: rgb(78, 180, 120);"/>
    <rect x="119.782" y="90.524" width="10.42" height="1.954" style="fill: rgb(78, 180, 120);"/>
    <rect x="165.802" y="223.44" width="10.42" height="1.954" transform="matrix(0.966223, -0.257706, 0.257706, 0.966223, -86.012675, -109.45528)" style="fill: rgb(78, 180, 120);"/>
    <rect x="173.02" y="250.499" width="10.42" height="1.954" transform="matrix(0.966223, -0.257706, 0.257706, 0.966223, -92.742534, -106.6813)" style="fill: rgb(78, 180, 120);"/>
    <rect x="164.752" y="62.708" width="10.42" height="1.954" style="fill: rgb(78, 180, 120);"/>
    <rect x="164.752" y="90.715" width="10.42" height="1.954" style="fill: rgb(78, 180, 120);"/>
    <rect x="175.824" y="62.708" width="10.42" height="1.954" style="fill: rgb(78, 180, 120);"/>
    <rect x="175.824" y="90.715" width="10.42" height="1.954" style="fill: rgb(78, 180, 120);"/>
    <rect x="183.639" y="56.846" width="2.605" height="41.358" opacity="0.1" style=""/>
    <rect x="186.904" y="56.8" width="10.42" height="41.358" fill="#535461" style=""/>
    <rect x="194.72" y="56.8" width="2.605" height="41.358" opacity="0.1" style=""/>
    <rect x="186.904" y="62.662" width="10.42" height="1.954" style="fill: rgb(78, 180, 120);"/>
    <rect x="186.904" y="90.669" width="10.42" height="1.954" style="fill: rgb(78, 180, 120);"/>
  </g>
  <path fill="#ffa000" d="M 280.524 51.05 L 281.782 42.997 C 281.798 42.898 281.874 42.82 281.973 42.803 C 282.072 42.787 282.17 42.834 282.217 42.923 L 283.519 45.35 L 284.037 44.362 C 284.078 44.286 284.156 44.238 284.243 44.238 C 284.329 44.238 284.408 44.286 284.448 44.362 L 287.96 51.05 L 280.524 51.05 Z" style="" transform="matrix(0.9999999999999999, 0, 0, 0.9999999999999999, 1.4210854715202004e-14, -7.105427357601002e-15)"/>
  <path fill="#f57c00" d="M 284.872 47.913 L 283.518 45.349 L 280.524 51.05 L 284.872 47.913 Z" style="" transform="matrix(0.9999999999999999, 0, 0, 0.9999999999999999, 1.4210854715202004e-14, -7.105427357601002e-15)"/>
  <path fill="#ffca28" d="M 287.96 51.05 L 286.996 45.085 C 286.982 44.998 286.921 44.929 286.839 44.903 C 286.755 44.876 286.665 44.898 286.603 44.959 L 280.524 51.05 L 283.888 52.935 C 284.099 53.053 284.357 53.053 284.568 52.935 L 287.96 51.05 Z" style="" transform="matrix(0.9999999999999999, 0, 0, 0.9999999999999999, 1.4210854715202004e-14, -7.105427357601002e-15)"/>
  <path d="M 295.753 43.084 L 298.766 43.08 L 293.71 48.133 L 292.393 49.443 L 290.894 47.942 L 295.753 43.084 Z M 295.724 47.595 C 295.763 47.544 295.835 47.569 295.89 47.563 L 298.763 47.563 L 296.145 50.179 L 294.638 48.682 L 295.724 47.595 Z" fill="#44d1fd" style="" transform="matrix(0.9999999999999999, 0, 0, 0.9999999999999999, 1.4210854715202004e-14, -7.105427357601002e-15)"/>
  <path fill="#1fbcfd" d="M 293.136 50.181 L 294.638 48.682 L 296.145 50.179 L 296.151 50.185 L 294.638 51.684 L 293.136 50.181 Z" style="" transform="matrix(0.9999999999999999, 0, 0, 0.9999999999999999, 1.4210854715202004e-14, -7.105427357601002e-15)"/>
  <path fill="#08589c" d="M 294.638 51.684 L 296.151 50.185 L 298.765 52.802 C 297.78 52.803 296.796 52.801 295.812 52.802 C 295.756 52.816 295.721 52.764 295.686 52.732 L 294.638 51.684 Z" style="" transform="matrix(0.9999999999999999, 0, 0, 0.9999999999999999, 1.4210854715202004e-14, -7.105427357601002e-15)"/>
  <g clip-path="url(#a)" transform="matrix(0.104150012136, -0.026178000495, 0.026178000495, 0.104150012136, 264.916350896988, 0.532531456785)" style="transform-origin: 45.9435px 46.0567px;">
    <path style="stroke:none;fill-rule:nonzero;fill:#f03c2e;fill-opacity:1" d="M90.156 41.965 50.036 1.848a5.918 5.918 0 0 0-8.372 0l-8.328 8.332 10.566 10.566a7.03 7.03 0 0 1 7.23 1.684 7.034 7.034 0 0 1 1.669 7.277l10.187 10.184a7.028 7.028 0 0 1 7.278 1.672 7.04 7.04 0 0 1 0 9.957 7.05 7.05 0 0 1-9.965 0 7.044 7.044 0 0 1-1.528-7.66l-9.5-9.497V59.36a7.04 7.04 0 0 1 1.86 11.29 7.04 7.04 0 0 1-9.957 0 7.04 7.04 0 0 1 0-9.958 7.06 7.06 0 0 1 2.304-1.539V33.926a7.049 7.049 0 0 1-3.82-9.234L29.242 14.272 1.73 41.777a5.925 5.925 0 0 0 0 8.371L41.852 90.27a5.925 5.925 0 0 0 8.37 0l39.934-39.934a5.925 5.925 0 0 0 0-8.371"/>
  </g>
  <g transform="matrix(0.036125004291534424, 0, 0, 0.036125004291534424, 332.98783341013853, 32.747323058465774)" style="">
    <path d="M 260.94 352.949 L 282.873 314.955 C 284.11 312.825 283.362 310.119 281.261 308.882 C 279.16 307.644 276.425 308.363 275.216 310.493 L 252.995 348.977 C 236.042 341.234 216.958 336.917 196.435 336.917 C 175.913 336.917 156.829 341.234 139.875 348.977 L 117.654 310.493 C 116.417 308.363 113.711 307.644 111.581 308.882 C 109.451 310.119 108.732 312.825 109.969 314.955 L 131.902 352.949 C 94.081 373.443 68.463 411.725 64.232 456.541 L 328.639 456.541 C 324.408 411.725 298.79 373.443 260.94 352.949 L 260.94 352.949 Z M 135.731 419.411 C 129.6 419.411 124.649 414.431 124.649 408.329 C 124.649 402.198 129.628 397.247 135.731 397.247 C 141.862 397.247 146.812 402.227 146.812 408.329 C 146.841 414.431 141.862 419.411 135.731 419.411 Z M 257.112 419.411 C 250.981 419.411 246.03 414.431 246.03 408.329 C 246.03 402.198 251.009 397.247 257.112 397.247 C 263.243 397.247 268.193 402.227 268.193 408.329 C 268.222 414.431 263.243 419.411 257.112 419.411 Z" fill="#32de84" stroke-width=".288"/>
    <path class="st0" d="M 909.716 376.023 C 908.315 365.846 902.708 357.009 892.592 349.026 L 886.742 345.066 L 882.842 350.976 C 877.845 358.594 875.347 369.198 876.138 379.375 C 876.504 382.91 877.662 389.369 881.257 394.915 C 877.662 396.926 870.532 399.607 861.025 399.424 L 679.424 399.424 L 679.058 401.557 C 677.353 411.734 677.353 443.606 697.767 468.043 C 713.306 486.629 736.524 496.075 766.873 496.075 C 832.688 496.075 881.318 465.422 904.171 409.601 C 913.129 409.784 932.447 409.662 942.38 390.466 C 942.624 390.039 943.233 388.882 944.94 385.225 L 945.915 383.214 L 940.369 379.436 C 934.275 375.474 920.442 373.952 909.716 376.023 Z M 824.644 307.953 L 797.038 307.953 L 797.038 333.364 L 824.644 333.364 L 824.644 307.953 Z M 824.644 338.484 L 797.038 338.484 L 797.038 363.896 L 824.644 363.896 L 824.644 338.484 Z M 791.98 338.484 L 764.375 338.484 L 764.375 363.896 L 791.98 363.896 L 791.98 338.484 Z M 759.377 338.484 L 731.771 338.484 L 731.771 363.896 L 759.377 363.896 L 759.377 338.484 Z M 726.713 369.015 L 699.107 369.015 L 699.107 394.427 L 726.713 394.427 L 726.713 369.015 Z M 759.377 369.015 L 731.771 369.015 L 731.771 394.427 L 759.377 394.427 L 759.377 369.015 Z M 791.98 369.015 L 764.375 369.015 L 764.375 394.427 L 791.98 394.427 L 791.98 369.015 Z M 824.644 369.015 L 797.038 369.015 L 797.038 394.427 L 824.644 394.427 L 824.644 369.015 Z M 857.308 369.015 L 829.702 369.015 L 829.702 394.427 L 857.308 394.427 L 857.308 369.015 Z" style="fill: rgb(29, 99, 237);"/>
    <path d="M 571.922 395.676 C 571.813 375.688 580.854 360.603 599.153 349.492 C 588.914 334.842 573.447 326.781 553.024 325.202 C 533.689 323.677 512.558 336.476 504.825 336.476 C 496.656 336.476 477.92 325.747 463.215 325.747 C 432.826 326.236 400.53 349.982 400.53 398.29 C 400.53 412.559 403.144 427.301 408.372 442.514 C 415.343 462.501 440.505 511.517 466.756 510.7 C 480.48 510.374 490.175 500.951 508.038 500.951 C 525.357 500.951 534.343 510.7 549.647 510.7 C 576.116 510.319 598.881 465.769 605.525 445.727 C 570.016 429.007 571.922 396.71 571.922 395.676 Z M 541.096 306.249 C 555.965 288.603 554.603 272.537 554.168 266.764 C 541.042 267.527 525.847 275.696 517.188 285.771 C 507.657 296.555 502.047 309.898 503.246 324.93 C 517.46 326.019 530.422 318.721 541.096 306.249 Z" style="fill: rgb(195, 195, 195);"/>
  </g>
</svg>